<?xml version="1.0" encoding="UTF-8"?><svg id="a" xmlns="http://www.w3.org/2000/svg" viewBox="0 0 466.6 170.3"><polygon points="44.39 30.49 30.02 30.49 30.02 5.24 0 5.24 0 74 30.02 74 30.02 48.02 44.39 48.02 44.39 74 74.41 74 74.41 5.24 44.39 5.24 44.39 30.49" fill="#c66700"/><path d="m143.23,59.67c3.99-6.49,5.39-12.47,5.39-23.81V5.24h-30.02v30.72q0,6.6-.4,7.32c-.5,1.24-1.8,2.06-3.19,2.06-1.2,0-2.29-.62-2.79-1.75q-.4-.72-.5-7.42V5.24h-30.22v30.2c0,4.02.1,7.11.2,9.07.4,5.15,2.19,10.41,5.19,15.15,6.08,9.59,16.86,15.57,28.03,15.57s22.44-6.19,28.33-15.57Z" fill="#c66700"/><polygon points="192.1 25.65 178.43 5.24 155.79 5.24 155.79 74 185.92 74 185.92 53.79 199.48 74 222.12 74 222.12 5.24 192.1 5.24 192.1 25.65" fill="#c66700"/><path d="m266.11,74.82c.9,0,4.49-.1,8.98-.21l21.54-.72v-37.11h-30.12v10.72h-1.6c-4.69,0-8.28-3.71-8.28-8.45,0-5.46,4.39-9.48,10.37-9.48,4.49,0,9.48,1.44,16.56,4.74l14.46-20.72c-12.77-6.91-21.94-9.59-32.82-9.59-21.84,0-36.81,14.43-36.81,35.57s15.46,35.26,37.7,35.26Z" fill="#c66700"/><path d="m335.52,48.84c.4-.1.8-.1,1-.1,6.58,0,10.37,8.45,11.37,25.26h31.22c-2.79-16.6-5.29-22.99-12.97-32.89,5.29-4.64,7.48-8.97,7.48-14.95,0-6.29-2.49-11.75-7.38-15.77-4.89-4.12-9.28-5.15-21.55-5.15h-39.3v68.76h30.12v-25.15Zm0-28.97h.8c4.69,0,7.48,2.37,7.48,6.19s-2.49,6.39-6.38,6.39c-.4,0-1.1,0-1.9-.1v-12.47Z" fill="#c66700"/><polygon points="403.64 74 433.67 74 433.67 44 458.6 5.24 428.18 5.24 418.51 20.39 408.03 5.24 377.31 5.24 403.64 44 403.64 74" fill="#c66700"/><polygon points="132.36 104.96 165.77 104.96 165.77 165.68 174.65 165.68 174.65 104.96 207.87 104.96 207.87 96.92 132.36 96.92 132.36 104.96" fill="#c66700"/><rect x="213.24" y="117.95" width="7.28" height="47.73" fill="#c66700"/><rect x="213.24" y="96.92" width="7.28" height="8.97" fill="#c66700"/><path d="m300.72,117.33c-13.27,0-18.55,2.06-21.55,8.35-3.69-6.49-8.88-8.35-23.94-8.35-11.27,0-14.76,1.24-18.95,6.91l-.1-6.29h-7.28v47.73h7.28v-18.76c0-12.58.5-15.88,2.89-18.66,2.69-3.09,7.28-4.33,16.56-4.33,8.68,0,13.17,1.03,15.76,3.5,1.9,1.96,2.49,4.54,2.49,11.44v26.8h7.28v-18.76c0-11.65.7-15.77,3.29-18.76,2.49-3.09,6.88-4.23,16.16-4.23,15.26,0,18.15,2.37,18.15,14.95v26.8h7.28v-25.15c0-11.13-.6-13.92-3.59-17.42-3.89-4.33-9.18-5.77-21.74-5.77Z" fill="#c66700"/><path d="m387.39,123.62c-4.29-4.95-9.88-6.29-25.74-6.29-11.57,0-16.86.82-20.75,3.2-5.69,3.4-8.18,10.1-8.18,21.44,0,10.21,2.29,16.8,6.98,20.2,4.09,2.99,11.27,4.12,26.73,4.12,18.75,0,25.24-3.92,25.54-15.36h-7.68c-.3,3.09-.5,3.92-1.7,5.15-2.39,2.78-6.48,3.61-16.96,3.61-13.86,0-18.85-.93-21.65-3.92-2.19-2.37-3.19-6.08-3.39-12.27h51.47c-.2-11.34-1.2-15.67-4.69-19.9Zm-46.58,13.4c.8-10.62,4.69-13.09,20.65-13.09,17.95,0,22.44,2.58,22.54,13.09h-43.19Z" fill="#c66700"/><path d="m441.15,138.26c-4.79-.21-18.15-.52-21.25-.41-11.07.21-13.76-1.03-13.76-6.29,0-2.68.7-4.33,2.29-5.46,2.19-1.44,8.28-2.16,18.25-2.16,10.97,0,16.46.82,18.45,2.99,1.1,1.03,1.4,2.27,1.4,5.77h7.78c0-5.67-.4-7.22-2.09-9.38-3.39-4.54-9.68-5.98-25.24-5.98-13.97,0-20.75.93-24.04,3.3-3.09,2.37-4.59,5.77-4.59,10.82,0,9.59,4.29,12.99,16.46,13.2,17.65.21,19.15.21,21.15.21,9.28-.1,12.27,1.75,12.27,7.42,0,2.47-.7,4.12-2.19,5.36-2.19,1.65-5.88,2.06-18.25,2.06-14.56,0-17.95-.41-20.45-2.37-1.5-1.13-1.9-2.78-1.9-6.91l-.1-1.34h-7.78v2.47c0,6.08,1.2,9.07,4.69,11.55,3.49,2.37,9.87,3.2,25.14,3.2,13.67,0,20.25-.82,23.44-2.78,3.69-2.27,5.19-5.57,5.19-11.34,0-9.38-4.39-13.5-14.86-13.92Z" fill="#c66700"/><polygon points="44.39 26.49 30.02 26.49 30.02 1.24 0 1.24 0 70 30.02 70 30.02 44.02 44.39 44.02 44.39 70 74.41 70 74.41 1.24 44.39 1.24 44.39 26.49" fill="#c66700"/><path d="m143.23,55.67c3.99-6.49,5.39-12.47,5.39-23.81V1.24h-30.02v30.72q0,6.6-.4,7.32c-.5,1.24-1.8,2.06-3.19,2.06-1.2,0-2.29-.62-2.79-1.75q-.4-.72-.5-7.42V1.24h-30.22v30.2c0,4.02.1,7.11.2,9.07.4,5.15,2.19,10.41,5.19,15.15,6.08,9.59,16.86,15.57,28.03,15.57s22.44-6.19,28.33-15.57Z" fill="#c66700"/><polygon points="192.1 21.65 178.43 1.24 155.79 1.24 155.79 70 185.92 70 185.92 49.79 199.48 70 222.12 70 222.12 1.24 192.1 1.24 192.1 21.65" fill="#c66700"/><path d="m266.11,70.82c.9,0,4.49-.1,8.98-.21l21.54-.72v-37.11h-30.12v10.72h-1.6c-4.69,0-8.28-3.71-8.28-8.45,0-5.46,4.39-9.48,10.37-9.48,4.49,0,9.48,1.44,16.56,4.74l14.46-20.72C285.26,2.68,276.08,0,265.21,0,243.36,0,228.4,14.43,228.4,35.57s15.46,35.26,37.7,35.26Z" fill="#c66700"/><path d="m335.52,44.84c.4-.1.8-.1,1-.1,6.58,0,10.37,8.45,11.37,25.26h31.22c-2.79-16.6-5.29-22.99-12.97-32.89,5.29-4.64,7.48-8.97,7.48-14.95,0-6.29-2.49-11.75-7.38-15.77-4.89-4.12-9.28-5.15-21.55-5.15h-39.3v68.76h30.12v-25.15Zm0-28.97h.8c4.69,0,7.48,2.37,7.48,6.19s-2.49,6.39-6.38,6.39c-.4,0-1.1,0-1.9-.1v-12.47Z" fill="#c66700"/><polygon points="403.64 70 433.67 70 433.67 40 458.6 1.24 428.18 1.24 418.51 16.39 408.03 1.24 377.31 1.24 403.64 40 403.64 70" fill="#c66700"/><polygon points="132.36 100.96 165.77 100.96 165.77 161.68 174.65 161.68 174.65 100.96 207.87 100.96 207.87 92.92 132.36 92.92 132.36 100.96" fill="#c66700"/><rect x="213.24" y="113.95" width="7.28" height="47.73" fill="#c66700"/><rect x="213.24" y="92.92" width="7.28" height="8.97" fill="#c66700"/><path d="m300.72,113.33c-13.27,0-18.55,2.06-21.55,8.35-3.69-6.49-8.88-8.35-23.94-8.35-11.27,0-14.76,1.24-18.95,6.91l-.1-6.29h-7.28v47.73h7.28v-18.76c0-12.58.5-15.88,2.89-18.66,2.69-3.09,7.28-4.33,16.56-4.33,8.68,0,13.17,1.03,15.76,3.5,1.9,1.96,2.49,4.54,2.49,11.44v26.8h7.28v-18.76c0-11.65.7-15.77,3.29-18.76,2.49-3.09,6.88-4.23,16.16-4.23,15.26,0,18.15,2.37,18.15,14.95v26.8h7.28v-25.15c0-11.13-.6-13.92-3.59-17.42-3.89-4.33-9.18-5.77-21.74-5.77Z" fill="#c66700"/><path d="m387.39,119.62c-4.29-4.95-9.88-6.29-25.74-6.29-11.57,0-16.86.82-20.75,3.2-5.69,3.4-8.18,10.1-8.18,21.44,0,10.21,2.29,16.8,6.98,20.2,4.09,2.99,11.27,4.12,26.73,4.12,18.75,0,25.24-3.92,25.54-15.36h-7.68c-.3,3.09-.5,3.92-1.7,5.15-2.39,2.78-6.48,3.61-16.96,3.61-13.86,0-18.85-.93-21.65-3.92-2.19-2.37-3.19-6.08-3.39-12.27h51.47c-.2-11.34-1.2-15.67-4.69-19.9Zm-46.58,13.4c.8-10.62,4.69-13.09,20.65-13.09,17.95,0,22.44,2.58,22.54,13.09h-43.19Z" fill="#c66700"/><path d="m441.15,134.26c-4.79-.21-18.15-.52-21.25-.41-11.07.21-13.76-1.03-13.76-6.29,0-2.68.7-4.33,2.29-5.46,2.19-1.44,8.28-2.16,18.25-2.16,10.97,0,16.46.82,18.45,2.99,1.1,1.03,1.4,2.27,1.4,5.77h7.78c0-5.67-.4-7.22-2.09-9.38-3.39-4.54-9.68-5.98-25.24-5.98-13.97,0-20.75.93-24.04,3.3-3.09,2.37-4.59,5.77-4.59,10.82,0,9.59,4.29,12.99,16.46,13.2,17.65.21,19.15.21,21.15.21,9.28-.1,12.27,1.75,12.27,7.42,0,2.47-.7,4.12-2.19,5.36-2.19,1.65-5.88,2.06-18.25,2.06-14.56,0-17.95-.41-20.45-2.37-1.5-1.13-1.9-2.78-1.9-6.91l-.1-1.34h-7.78v2.47c0,6.08,1.2,9.07,4.69,11.55,3.49,2.37,9.87,3.2,25.14,3.2,13.67,0,20.25-.82,23.44-2.78,3.69-2.27,5.19-5.57,5.19-11.34,0-9.38-4.39-13.5-14.86-13.92Z" fill="#c66700"/></svg>